<svg width="36" height="34" viewBox="0 0 36 34" fill="none" xmlns="http://www.w3.org/2000/svg">
<path d="M32.3883 0H2.80049C1.25158 0 0 1.25041 0 2.79696V30.7819C0 32.3237 1.25158 33.5776 2.80049 33.5776H32.3883C33.9302 33.5776 35.1853 32.3249 35.1853 30.7819V2.79696C35.1841 1.25041 33.929 0 32.3883 0ZM23.6508 9.96917C22.9233 9.54375 22.3463 9.20764 21.6212 9.20764C20.9114 9.20764 20.305 9.3851 19.9947 9.6836C19.6845 9.97974 19.5305 10.5532 19.5305 11.4006V12.6545H23.3252L22.5038 16.1425H19.5305V27.7322H14.764V16.1425H12.5393V12.6545H14.7663V11.323C14.7663 9.92099 14.9344 9.0819 15.2658 8.38971C15.596 7.69987 16.2365 6.93129 17.1273 6.49647C18.0169 6.06282 19.3331 5.84424 20.6952 5.84424C22.0913 5.84424 23.1819 6.30962 24.5192 6.6845L23.6508 9.96917Z" fill="#A5847D"/>
</svg>
