<svg width="33" height="34" viewBox="0 0 33 34" fill="none" xmlns="http://www.w3.org/2000/svg">
<path d="M32.9879 3.83006C32.7856 1.86515 31.1567 0.394131 29.1776 0.393066C20.7289 0.393066 12.2813 0.393066 3.83258 0.395195C3.60156 0.395195 3.36628 0.412226 3.14271 0.455867C1.27114 0.81351 0 2.36117 0 4.2654C0 8.47622 0 12.687 0 16.8979C0 21.1002 0 25.3025 0.00212921 29.5048C0.00212921 29.7187 0.0180983 29.9337 0.0447134 30.1477C0.289573 31.9753 1.91309 33.392 3.76018 33.3931C12.2547 33.3931 20.7502 33.3931 29.2447 33.392C29.3905 33.392 29.5343 33.3835 29.6801 33.3675C31.5464 33.1483 32.9974 31.5186 32.9974 29.6399C33.0006 21.1449 33.0006 12.6508 32.9985 4.15683C33.0006 4.04613 33.0028 3.93863 32.9879 3.83006ZM16.5003 10.5497C20.0071 10.5486 22.8454 13.3821 22.8496 16.8915C22.8539 20.3987 20.0199 23.2375 16.511 23.2396C12.9956 23.2407 10.1531 20.3998 10.1574 16.8872C10.1617 13.3896 13.002 10.5497 16.5003 10.5497ZM29.2021 14.5295C29.2021 19.0863 29.2021 23.6441 29.2021 28.2041C29.2021 29.062 28.6805 29.5889 27.8213 29.5889C20.7704 29.5889 13.7196 29.5889 6.66762 29.5889C6.1598 29.5889 5.65518 29.5899 5.1463 29.5889C4.35104 29.5878 3.81129 29.0471 3.81129 28.253C3.81022 23.6739 3.81129 19.0948 3.81129 14.5146C3.81129 14.4689 3.81129 14.422 3.81129 14.3677C4.77049 14.3677 5.71799 14.3677 6.67507 14.3677C6.03418 16.9532 6.32801 19.4269 7.59383 21.7665C8.51897 23.4738 9.84547 24.8011 11.5371 25.7559C14.8779 27.641 19.0341 27.4632 22.2151 25.2897C23.9802 24.0826 25.2492 22.4775 26.0062 20.4775C26.7588 18.4817 26.8568 16.4444 26.3309 14.3635C27.2901 14.3635 28.2355 14.3635 29.2 14.3635C29.2021 14.4199 29.2021 14.4742 29.2021 14.5295ZM29.2021 9.25005C29.2 10.0005 28.6475 10.5476 27.8937 10.5486C27.8841 10.5486 27.8735 10.5486 27.8682 10.5486C27.2571 10.5486 26.6417 10.5486 26.0264 10.5486C25.4004 10.5486 24.7723 10.5497 24.1442 10.5476C23.4213 10.5476 22.8592 10.0079 22.8549 9.28517C22.8464 8.0132 22.8464 6.74123 22.8549 5.47138C22.8592 4.74013 23.4192 4.20473 24.1548 4.20367C25.4068 4.2026 26.6556 4.2026 27.9054 4.20367C28.6464 4.20473 29.201 4.75503 29.2032 5.50012C29.2042 6.75187 29.2042 8.00043 29.2021 9.25005Z" fill="#A5847D"/>
</svg>
