<svg width="602" height="609" viewBox="0 0 602 609" fill="none" xmlns="http://www.w3.org/2000/svg">
<path d="M110.947 410.865C109.01 410.65 106.98 410.673 105.065 411.008C103.239 411.328 101.525 412.245 99.7225 412.77C99.2373 412.91 98.3047 412.747 98.1019 412.412C96.0702 409.05 94.026 405.682 92.2445 402.186C91.2867 400.309 90.8714 398.162 90.1415 396.159C88.328 391.174 86.3508 386.245 84.6645 381.22C83.5333 380.725 82.4188 380.178 81.3268 379.581C83.0411 384.847 84.705 390.134 86.5689 395.35C87.7323 398.605 88.8957 401.881 90.3359 405.019C91.565 407.704 92.7325 410.43 94.5923 412.826C96.2073 414.912 95.9542 415.126 94.0483 416.835C92.8528 417.912 91.737 419.102 90.7176 420.354C88.0357 423.648 86.1243 427.387 84.8085 431.419C83.2047 436.32 82.8201 441.329 83.9024 446.379C84.5428 449.379 85.9803 452.091 88.2762 454.106C95.0607 460.053 108.067 456.789 111.435 448.357C111.605 447.928 111.449 447.041 111.137 446.835C110.794 446.606 110.047 446.824 109.564 447.042C109.217 447.2 109.039 447.701 108.74 448.004C107.357 449.403 106.076 450.936 104.541 452.143C101.124 454.828 96.7694 454.882 93.5645 452.35C91.5342 450.748 90.3387 448.495 89.8563 446.027C87.9252 436.142 90.8547 427.411 96.4576 419.362C97.4881 417.879 98.3508 418.909 99.1562 419.581C100.336 420.564 101.373 421.73 102.595 422.653C105.492 424.841 109.057 425.278 112.436 426.152C113.974 426.548 116.159 424.888 116.27 423.315C116.419 421.119 116.586 418.898 116.436 416.712C116.233 413.761 113.837 411.191 110.947 410.865ZM114.23 420.385C114.044 421.978 112.195 423.351 110.442 423.001C107.043 422.325 104.099 420.617 101.452 418.465C100.023 417.301 100.258 415.522 101.911 414.765C103.745 413.921 105.72 413.392 107.633 412.722C112.167 413.059 114.744 415.968 114.23 420.385Z" fill="white"/>
<path d="M422.966 508.933C421.286 510.143 419.59 511.333 417.859 512.467C416.79 513.169 416.507 512.651 416.752 511.533C417.261 509.198 417.589 506.816 418.22 504.515C419.534 499.721 421.017 494.974 422.373 490.191C422.539 489.593 422.357 488.902 422.342 488.249C421.714 488.421 421.089 488.593 420.463 488.768C419.443 489.054 418.42 489.607 417.408 489.582C413.951 489.505 410.787 490.229 407.919 492.232C403.039 495.639 399.68 500.227 397.825 505.805C397.089 508.023 396.693 510.539 396.9 512.852C397.293 517.25 400.565 518.87 404.504 516.848C406.245 515.954 407.797 514.704 409.44 513.614C410.072 513.196 410.704 512.778 411.336 512.358C411.203 513.167 411.153 513.997 410.918 514.773C410.174 517.246 410.971 518.474 413.448 517.891C415.555 517.396 417.545 516.246 419.478 515.192C420.536 514.617 421.467 513.883 422.373 513.111C422.447 511.695 422.646 510.3 422.966 508.933ZM415.635 496.239C414.878 498.784 414.136 501.336 413.4 503.887C412.604 506.656 411.396 509.181 409.186 511.118C408.801 511.453 408.421 511.823 407.978 512.049C406.532 512.789 405.04 513.729 403.394 512.705C401.859 511.743 401.87 510.102 401.968 508.553C402.273 503.907 403.693 499.683 406.813 496.118C408.575 494.106 410.781 493.204 413.541 493.332C416.253 493.32 416.427 493.559 415.635 496.239Z" fill="white"/>
<path d="M313.827 334.355C313.827 324.588 313.858 314.822 313.801 305.056C313.791 303.124 313.371 301.199 313.301 299.263C313.264 298.179 313.768 297.055 313.644 295.996C312.976 290.367 313.1 284.729 313.255 279.086C313.293 277.597 313.97 277.193 315.589 277.295C320.544 277.607 325.506 277.779 330.461 278.078C331.83 278.162 331.879 277.61 331.844 276.435C331.443 263.147 331.114 249.856 330.766 236.565C330.714 234.547 330.867 232.565 330.065 230.556C329.278 228.58 330.658 227.287 332.828 227.231C339.687 227.054 346.548 226.742 353.405 226.556C354.723 226.521 354.983 225.97 354.906 224.818C354.636 220.717 354.411 216.611 354.177 212.508C354.11 211.306 353.97 210.092 354.081 208.906C354.134 208.364 354.721 207.427 355.054 207.432C356.307 207.451 357.14 207.151 357.049 205.779C356.932 203.982 357.813 201.918 355.866 200.55C351.614 197.563 351.101 194.366 354.297 190.221C356.213 187.735 357.002 184.903 357.042 181.822C357.065 180.104 356.986 178.382 357.086 176.669C357.115 176.22 357.639 175.8 357.937 175.367C358.375 175.719 359.082 176.003 359.191 176.435C359.391 177.242 359.316 178.141 359.219 178.986C358.796 182.625 359.27 186.031 361.768 188.889C363.365 190.711 363.514 192.91 363.631 195.15C363.75 197.412 362.609 199.008 360.709 199.862C359.337 200.482 358.948 201.265 359.087 202.628C359.182 203.565 359.12 204.516 359.103 205.46C359.08 206.497 359.186 207.372 360.579 207.272C361.788 207.185 362.293 208.017 362.435 209.01C362.616 210.274 362.673 211.559 362.698 212.841C362.767 216.274 362.648 219.717 362.883 223.135C363.072 225.879 363.33 226.12 366.002 225.995C369.493 225.831 372.965 225.26 376.456 224.991C381.666 224.591 386.88 224.299 392.097 223.977C393.04 223.918 394.041 224.127 394.922 223.879C397.103 223.262 397.462 224.268 397.517 226.176C397.578 228.312 397.205 230.462 397.261 232.6C397.362 236.356 398.236 240.189 397.7 243.832C397.053 248.236 397.542 252.544 397.507 256.889C397.464 262.635 397.647 268.386 397.76 274.134C397.811 276.728 397.97 276.934 400.559 276.903C405.698 276.843 410.835 276.673 415.973 276.589C419.326 276.533 419.401 276.706 419.498 280.044C419.643 285.272 419.993 290.498 420.058 295.725C420.088 298.108 419.468 300.494 419.459 302.878C419.433 309.749 419.559 316.622 419.649 323.491C419.723 329.16 419.839 334.822 419.896 340.489C419.905 341.137 419.866 341.962 419.492 342.401C418.936 343.06 418.553 343.283 419.368 344.149C420.393 345.233 419.443 345.881 418.369 345.99C417.445 346.085 416.493 345.823 415.55 345.834C410.15 345.903 404.75 346.104 399.354 346.075C389.661 346.02 379.975 345.812 370.284 345.706C365.317 345.654 360.351 345.735 355.388 345.678C349.982 345.615 344.574 345.225 339.178 345.408C332.407 345.64 325.651 346.31 318.889 346.792C318.805 346.801 318.725 346.839 318.637 346.85C315.224 347.245 314.198 346.322 314.191 342.84C314.186 340.011 314.189 337.183 314.189 334.354C314.075 334.355 313.95 334.355 313.827 334.355ZM316.057 319.377C316.178 319.377 316.299 319.377 316.42 319.377C316.42 324.272 316.426 329.164 316.417 334.061C316.414 335.38 316.557 336.012 318.297 336.487C321.403 337.331 324.439 337.498 327.22 336.337C329.724 335.291 331.427 335.256 332.95 337.577C333.058 337.741 333.635 337.818 333.8 337.689C336.167 335.84 338.984 335.723 341.477 337.299C341.923 337.58 342.654 337.542 343.226 337.46C345.571 337.127 347.934 336.322 350.238 336.474C351.692 336.572 353.028 337.924 354.503 336.389C354.683 336.203 355.308 336.475 355.735 336.495C358.023 336.58 360.415 335.526 362.581 337.112C362.644 337.155 362.967 336.702 363.182 336.691C365.365 336.565 367.643 336.046 369.698 336.513C371.836 336.997 373.77 337.259 375.851 336.57C377.494 336.024 379.1 336.404 379.928 337.895C380.781 339.425 381.079 338.663 381.835 337.906C383.661 336.081 386.139 335.716 388.355 336.41C390.158 336.972 391.746 336.8 393.255 336.252C394.799 335.687 395.907 336.099 397.363 336.509C399.627 337.148 402.1 337.053 404.489 337.228C404.693 337.245 404.919 336.973 405.135 336.829C406.74 335.752 408.44 335.531 410.285 336.165C410.735 336.323 411.272 336.282 411.764 336.26C413.366 336.189 414.988 335.873 416.55 336.068C417.677 336.215 417.698 335.819 417.695 335.047C417.679 333.084 417.653 331.116 417.651 329.155C417.628 319.398 416.759 309.647 417.603 299.89C417.652 299.299 417.598 298.677 417.458 298.105C417.375 297.783 417.059 297.341 416.775 297.279C413.88 296.638 411.459 298.094 410.752 301.059C410.276 303.049 410.079 305.103 409.802 307.137C409.13 312.095 406.877 315.107 401.152 313.419C399.518 312.935 398.603 311.875 398.41 310.362C397.767 305.268 397.205 300.164 396.751 295.049C396.632 293.686 396.463 292.627 394.916 292.491C393.419 292.358 392.11 293.551 392.043 295.06C391.989 296.262 392.124 297.48 391.981 298.667C391.752 300.61 391.137 302.375 388.992 303.05C385.68 304.092 382.112 301.828 381.644 298.395C381.515 297.465 381.343 296.539 381.206 295.609C381.028 294.43 380.69 293.398 379.243 293.315C377.835 293.235 376.504 294.223 376.301 295.669C376.167 296.593 376.183 297.571 376.33 298.495C376.848 301.836 375.494 304.336 372.939 306.302C371.825 307.158 370.617 307.791 369.14 307.089C367.787 306.446 367.322 305.278 367.37 303.917C367.478 300.915 365.373 298.279 365.988 295.147C366.072 294.732 364.842 293.831 364.081 293.592C363.789 293.501 363.047 294.584 362.641 295.217C362.433 295.542 362.564 296.062 362.459 296.474C361.847 298.909 359.895 300.572 357.544 300.701C355.395 300.82 353.977 299.674 353.175 296.853C352.565 294.723 352.208 292.521 351.705 290.359C351.326 288.721 350.319 288.173 348.646 288.493C345.217 289.147 344.247 290.416 344.002 293.882C343.791 296.851 343.374 299.839 342.648 302.719C342.097 304.922 340.901 305.391 338.483 305.225C336.615 305.096 335.668 304.268 335.152 302.224C334.987 301.564 335.053 300.832 334.821 300.203C334.583 299.56 334.112 299 333.746 298.406C333.312 298.996 332.518 299.592 332.522 300.182C332.536 301.874 333.025 303.565 333.044 305.261C333.069 307.277 333.037 309.356 332.571 311.292C332.188 312.895 330.675 313.771 328.983 313.704C327.397 313.641 326.532 312.509 326.291 311.028C325.98 309.106 325.689 307.162 325.626 305.221C325.546 302.836 325.775 300.445 325.75 298.056C325.743 297.225 325.48 296.346 325.118 295.588C324.904 295.133 324.156 294.512 323.858 294.61C323.324 294.788 322.801 295.377 322.547 295.923C322.268 296.519 322.33 297.263 322.192 297.933C321.713 300.236 320.722 302.411 318.324 302.955C316.083 303.464 316.022 304.757 316.042 306.488C316.088 310.783 316.057 315.076 316.057 319.377ZM417.653 284.406C417.591 284.406 417.528 284.406 417.463 284.406C417.424 283.721 417.377 283.037 417.344 282.351C417.161 278.569 417.851 278.941 413.8 278.814C407.208 278.609 400.604 278.684 394.014 278.73C386.387 278.786 378.759 278.927 371.13 279.051C364.87 279.155 358.614 279.271 352.355 279.412C347.383 279.526 342.418 279.744 337.445 279.818C330.767 279.92 324.082 280.102 317.414 279.872C315.403 279.804 315.281 280.435 315.344 281.91C315.543 286.604 315.715 291.298 315.905 295.992C315.952 297.182 315.936 298.386 316.131 299.555C316.408 301.217 317.478 301.676 318.492 300.425C319.403 299.302 319.985 297.769 320.304 296.326C320.817 293.982 322.022 292.189 323.686 291.975C325.195 291.778 326.73 293.087 327.537 295.53C328.498 298.431 328.401 301.411 328.084 304.433C327.88 306.359 328.095 308.341 328.285 310.284C328.326 310.739 328.979 311.418 329.414 311.47C329.85 311.521 330.592 311.03 330.802 310.584C331.538 309.039 332.048 307.466 331.222 305.692C330.128 303.343 330.283 300.827 330.876 298.389C331.287 296.705 332.695 295.715 334.08 296.007C335.582 296.323 336.778 297.066 336.911 298.862C336.978 299.711 337.233 300.543 337.396 301.386C337.596 302.448 338.098 303.06 339.312 302.989C340.434 302.924 341.113 302.434 341.256 301.34C341.568 298.971 342.071 296.595 342.05 294.224C342.016 289.94 343.129 288.051 347.12 286.654C350.449 285.486 353.026 286.707 354.012 290.1C354.63 292.227 354.868 294.465 355.5 296.585C355.725 297.344 356.525 298.304 357.217 298.453C357.958 298.611 359.152 298.146 359.656 297.542C360.243 296.831 360.458 295.691 360.545 294.715C360.651 293.505 360.977 292.623 362.094 291.981C365.122 290.244 367.355 291.189 368.136 294.782C368.714 297.432 369.003 300.143 369.543 302.8C369.711 303.643 370.264 304.41 370.636 305.212C371.533 304.647 372.692 304.274 373.261 303.478C374.447 301.831 374.677 299.846 374.435 297.81C374.326 296.89 374.31 295.929 374.454 295.019C374.788 292.87 377.094 291.07 379.423 291.015C381.364 290.967 382.719 292.298 383.215 294.817C383.467 296.079 383.561 297.374 383.842 298.628C384.267 300.529 385.56 301.368 387.639 301.214C389.422 301.083 390.096 300.278 390.166 298.046C390.194 297.193 390.057 296.335 389.994 295.479C389.863 293.763 390.077 292.143 391.801 291.28C393.624 290.367 395.527 289.898 397.441 291.089C398.694 291.87 399.193 292.978 399.321 294.495C399.762 299.848 400.358 305.189 400.954 310.528C400.997 310.941 401.4 311.46 401.782 311.67C403.844 312.814 406.348 312.049 406.996 309.79C407.745 307.19 408.086 304.464 408.506 301.779C409.18 297.462 411.241 294.824 415.434 295.108C417.449 295.242 417.677 294.128 417.667 292.603C417.642 289.872 417.653 287.141 417.653 284.406ZM395.418 257.155C395.282 257.156 395.151 257.156 395.017 257.159C395.017 253.563 395.039 249.966 394.997 246.372C394.989 245.776 394.708 245.183 394.555 244.589C394.002 244.91 393.391 245.162 392.914 245.572C392.265 246.127 391.766 246.854 391.121 247.418C388.845 249.412 385.927 248.479 385.218 245.554C385.072 244.97 385.135 244.281 384.841 243.806C384.386 243.07 383.706 242.474 383.12 241.82C382.559 242.492 381.769 243.084 381.495 243.859C381.198 244.702 381.463 245.726 381.329 246.649C381.112 248.149 380.993 249.728 380.42 251.102C379.615 253.039 376.906 254.475 375.206 254.234C373.42 253.981 371.91 252.269 371.379 249.889C371.305 249.554 371.225 249.219 371.172 248.881C370.762 246.432 370.431 243.968 369.92 241.538C369.68 240.385 369.265 239.165 367.756 238.993C366.24 238.821 365.636 239.842 365.123 240.992C364.95 241.383 364.78 241.785 364.559 242.148C363.302 244.205 360.426 244.555 358.922 242.666C358.106 241.642 357.642 240.291 357.205 239.024C356.364 236.6 353.79 235.888 351.981 237.719C351.458 238.249 350.977 238.962 350.803 239.671C350.438 241.157 350.255 242.688 350.061 244.21C349.747 246.664 349.634 249.152 349.159 251.574C348.857 253.116 347.499 254.241 345.989 254.093C344.888 253.984 343.735 253.029 342.89 252.17C342.281 251.553 342.09 250.491 341.821 249.593C341.354 248.036 341.029 246.432 340.531 244.884C339.951 243.078 338.3 242.028 336.841 242.404C335.267 242.808 333.235 245.124 333.286 246.429C333.431 250.202 333.569 253.977 333.712 257.75C333.87 262.04 334.06 266.326 334.171 270.614C334.206 272.062 334.682 272.421 336.053 271.876C336.718 271.611 337.538 271.607 338.27 271.66C339.912 271.783 341.548 272.169 343.183 272.162C344.736 272.157 346.285 271.783 347.837 271.576C348.535 271.484 349.238 271.407 349.94 271.315C351.171 271.155 352.397 270.958 353.633 270.835C354.946 270.705 356.311 270.821 357.574 270.512C359.24 270.102 360.848 269.88 362.231 271.007C362.984 271.622 363.445 271.596 364.221 271.141C364.667 270.883 365.356 271.036 365.94 271.013C366.646 270.983 367.384 271.088 368.051 270.913C369.483 270.533 370.744 270.422 371.653 271.92C371.77 272.112 372.405 272.176 372.688 272.046C374.114 271.408 375.449 270.491 376.926 270.056C377.987 269.744 379.301 269.8 380.359 270.141C381.028 270.357 381.43 271.397 381.948 272.07C382.456 271.525 382.943 270.954 383.492 270.452C383.645 270.312 383.987 270.376 384.237 270.339C386.163 270.053 388.101 269.369 389.914 270.803C390.155 270.994 390.725 270.729 391.141 270.744C391.767 270.768 392.394 270.849 393.02 270.908C392.726 271.509 392.41 272.101 392.145 272.713C391.929 273.208 391.5 273.834 391.648 274.213C391.824 274.663 392.469 275.085 392.991 275.217C394.469 275.59 395.762 274.412 395.45 272.835C395.28 271.965 394.498 271.215 393.992 270.411C395.034 269.807 395.478 268.965 395.449 267.704C395.365 264.189 395.418 260.67 395.418 257.155ZM341.151 229.23C341.148 229.166 341.142 229.098 341.14 229.033C339.165 229.033 337.19 229.031 335.212 229.037C334.783 229.037 334.355 229.055 333.925 229.079C331.834 229.203 331.831 229.262 332.133 231.391C332.42 233.421 332.623 235.469 332.806 237.512C332.872 238.276 332.782 239.055 332.777 239.828C332.749 242.222 332.933 242.341 334.924 241.225C335.071 241.141 335.205 241.028 335.358 240.944C337.617 239.687 339.698 239.932 341.354 241.869C342.046 242.682 342.518 243.757 342.855 244.79C343.406 246.499 343.659 248.307 344.254 250C344.501 250.702 345.293 251.214 345.842 251.809C346.322 251.296 347.087 250.851 347.225 250.258C347.607 248.629 347.914 246.937 347.912 245.271C347.906 242.309 348.089 239.476 349.799 236.895C351.314 234.61 353.384 234.238 355.865 234.616C358.167 234.967 358.793 236.737 359.422 238.547C359.619 239.111 359.651 239.774 359.976 240.239C360.334 240.747 360.966 241.429 361.434 241.399C362.062 241.355 362.687 240.743 363.237 240.287C363.473 240.091 363.56 239.687 363.66 239.36C364.147 237.69 365.203 236.741 366.98 236.635C368.75 236.532 370.316 237.053 371.14 238.644C371.791 239.902 372.151 241.348 372.432 242.752C372.854 244.846 373.058 246.98 373.415 249.088C373.669 250.566 374.112 252.012 375.884 252.282C377.236 252.486 378.651 251.246 379.272 249.279C379.515 248.505 379.599 247.565 379.408 246.79C378.886 244.723 379.473 242.898 380.252 241.057C380.753 239.87 381.621 239.422 382.887 239.434C385.408 239.456 386.494 240.604 387.21 243.895C387.37 244.642 387.93 245.867 388.329 245.877C389.119 245.894 389.99 245.309 390.71 244.808C391.813 244.042 392.712 242.882 393.901 242.358C395.021 241.866 395.168 241.297 395.15 240.253C395.075 236.734 395.027 233.21 395.106 229.693C395.197 225.834 395.253 225.672 391.43 225.924C386.05 226.275 380.694 227.001 375.319 227.37C369.583 227.763 363.834 227.896 358.092 228.202C352.438 228.504 346.796 228.885 341.151 229.23ZM360.162 214.775C360.214 214.772 360.267 214.77 360.317 214.769C360.376 213.568 360.462 212.366 360.483 211.166C360.504 210.007 359.93 209.311 358.733 209.557C357.74 209.76 356.166 209.442 356.244 211.12C356.461 215.747 356.779 220.372 357.153 224.988C357.304 226.875 358.941 226.19 359.997 226.241C360.226 226.254 360.759 225.122 360.737 224.532C360.618 221.276 360.366 218.025 360.162 214.775ZM361.362 194.578C361.332 194.322 361.257 193.983 361.248 193.643C361.192 191.388 359.493 190.005 358.424 188.291C357.579 189.502 356.737 190.714 355.897 191.93C355.603 192.353 355.308 192.774 355.041 193.213C354.134 194.692 354.142 196.216 355.204 197.547C356.083 198.651 357.416 198.87 358.731 198.44C360.086 197.994 361.359 196.057 361.362 194.578ZM322.396 341.163C322.417 339.461 321.706 338.566 320.315 338.53C318.254 338.481 316.604 339.292 316.555 340.379C316.492 341.791 318.367 343.345 320.182 343.383C321.581 343.416 322.379 342.619 322.396 341.163ZM359.463 342.545C360.075 342.146 361.033 341.528 361.985 340.912C361.307 340.021 360.732 339.014 359.913 338.284C359.294 337.73 356.043 338.499 355.41 339.198C355.247 339.382 355.194 339.843 355.308 340.058C356.077 341.502 357.283 342.342 359.463 342.545ZM358.972 277.133C360.57 277.112 362.04 275.703 361.963 274.277C361.887 273.006 360.889 272.29 359.21 272.306C357.618 272.322 356.152 273.495 356.168 274.74C356.185 275.984 357.553 277.154 358.972 277.133ZM353.526 274.558C353.734 273.061 352.799 272.543 351.526 272.657C350.277 272.771 349.043 273.112 347.832 273.471C347.561 273.551 347.284 274.117 347.268 274.471C347.219 275.748 348.929 277.012 350.634 277.039C352.501 277.071 353.519 276.215 353.526 274.558ZM329.011 342.496C329.83 342.023 331.283 341.688 331.61 340.893C332.354 339.096 330.461 337.354 328.531 337.842C327.87 338.008 327.234 338.289 326.612 338.573C325.097 339.264 324.91 340.477 326.263 341.444C326.921 341.914 327.811 342.053 329.011 342.496ZM387.07 342.679C388.046 342.69 389.011 342.688 389.089 341.341C389.194 339.618 387.986 337.968 386.648 338.011C385.362 338.052 383.182 339.464 383.215 340.229C383.267 341.261 385.46 342.657 387.07 342.679ZM367.335 277.57C368.673 276.786 370.05 276.431 370.452 275.603C370.766 274.951 370.002 273.638 369.462 272.776C369.198 272.348 365.087 273.537 364.987 273.982C364.912 274.299 364.828 274.758 364.989 274.961C365.658 275.807 366.426 276.579 367.335 277.57ZM378.932 271.726C376.806 271.782 374.578 273.372 374.616 274.373C374.655 275.405 375.936 276.377 377.226 276.358C378.765 276.334 380.402 274.789 380.11 273.383C379.967 272.67 379.198 272.083 378.932 271.726ZM376.143 342.837C377.014 342.285 378.016 341.934 378.528 341.226C378.82 340.822 378.535 339.423 378.123 339.205C377.361 338.81 376.318 338.899 375.392 338.893C374.995 338.891 374.6 339.158 374.198 339.295C372.902 339.731 372.605 340.472 373.548 341.373C374.174 341.972 375.091 342.264 376.143 342.837ZM413.049 337.989C413.059 340.906 414 342.416 415.525 342.318C416.722 342.242 417.676 341.688 417.683 340.286C417.691 338.831 415.791 337.285 414.043 337.394C413.621 337.421 413.22 337.879 413.049 337.989ZM347.468 342.072C348.804 341.442 349.921 340.952 350.974 340.356C351.093 340.288 350.989 339.531 350.784 339.233C349.875 337.921 348.493 338.204 347.313 338.548C346.249 338.854 345.302 339.569 344.303 340.105C345.314 340.731 346.322 341.359 347.468 342.072ZM338.754 342.714C339.523 342.097 340.668 341.616 340.969 340.821C341.37 339.755 339.579 338.288 338.297 338.362C336.89 338.439 335.735 339.402 335.864 340.489C336.039 342.026 337.181 342.33 338.754 342.714ZM367.805 337.989C367.009 338.158 366.409 338.226 365.856 338.424C365.352 338.601 364.474 338.956 364.491 339.155C364.555 339.762 364.843 340.474 365.285 340.881C366.314 341.832 368.768 341.752 369.856 340.853C370.759 340.107 370.504 339.285 369.736 338.727C369.147 338.303 368.338 338.18 367.805 337.989ZM401.986 342.149C402.298 341.909 403.293 341.516 403.331 341.046C403.464 339.458 400.808 337.79 399.434 338.549C398.938 338.825 398.443 339.593 398.44 340.14C398.438 340.632 399.02 341.278 399.516 341.57C400.073 341.895 400.817 341.898 401.986 342.149ZM409.18 341.909C409.469 341.559 410.354 340.958 410.498 340.215C410.742 338.966 409.444 337.507 408.443 337.868C407.478 338.221 406.495 339.127 406.011 340.049C405.577 340.881 407.057 341.903 409.18 341.909ZM338.098 274.38C337.966 274.26 337.627 273.682 337.19 273.596C335.956 273.344 334.59 274.685 334.503 276.005C334.439 277.04 334.779 277.6 335.906 277.608C337.461 277.618 337.94 277.066 338.098 274.38ZM343.332 277.383C343.728 277.04 344.895 276.507 344.982 275.838C345.128 274.682 344.345 273.688 342.892 273.936C341.829 274.117 340.441 274.122 340.397 275.614C340.35 277.133 341.633 277.219 343.332 277.383ZM396.134 338.994C395.691 338.596 395.089 337.77 394.831 337.865C393.637 338.307 392.54 339.012 391.411 339.619C392.29 340.187 393.101 340.974 394.06 341.275C395.728 341.797 395.807 340.513 396.134 338.994ZM386.542 270.934C385.727 271.892 384.949 272.396 384.889 272.969C384.786 274.018 385.229 275.081 386.567 275.094C387.652 275.105 388.894 274.696 388.745 273.481C388.653 272.701 387.553 272.041 386.542 270.934Z" fill="white"/>
<path d="M241.261 483.694C242.47 483.246 243.663 482.746 244.892 482.375C245.49 482.192 246.156 482.249 246.792 482.2C246.75 482.762 246.809 483.361 246.652 483.894C244.983 489.562 243.252 495.211 241.605 500.883C241.174 502.359 240.925 503.89 240.675 505.409C240.598 505.865 240.7 506.728 240.883 506.778C241.381 506.91 242.074 506.865 242.502 506.595C243.501 505.964 244.4 505.171 245.318 504.417C246.199 503.69 246.834 503.573 247.584 504.718C248.89 506.712 253.631 507.1 255.074 505.275C256.284 503.745 257.286 502.01 258.135 500.245C259.772 496.853 261.276 493.393 262.738 489.917C263 489.298 262.791 488.478 262.8 487.751C262.068 487.852 261.266 487.806 260.623 488.101C259.866 488.447 259.255 489.106 258.563 489.603C258.013 489.998 257.475 490.496 256.851 490.68C256.491 490.78 255.804 490.473 255.583 490.133C255.417 489.884 255.613 489.07 255.894 488.889C258.701 487.103 261.453 485.166 264.443 483.74C266.748 482.636 268.025 483.617 268.224 486.199C268.633 491.498 268.91 496.802 269.3 502.101C269.374 503.073 269.731 504.027 269.955 504.988C270.549 504.277 271.208 503.615 271.725 502.85C275.356 497.441 278.95 492.011 282.571 486.603C283.589 485.084 286.151 484.305 287.765 485.07C288.037 485.204 288.261 485.916 288.166 486.269C287.405 489.077 286.563 491.86 285.741 494.649C284.674 498.265 283.589 501.876 282.542 505.498C282.331 506.235 282.202 507.012 282.135 507.777C282.034 508.937 282.58 509.519 283.652 508.839C284.865 508.06 285.898 507.005 287.102 506.2C287.559 505.891 288.26 505.951 288.852 505.842C288.823 506.47 289.047 507.419 288.725 507.673C286.373 509.511 284.058 511.465 281.46 512.888C278.75 514.374 276.485 512.796 276.914 509.725C277.396 506.256 278.428 502.869 279.218 499.443C279.627 497.675 280.025 495.906 280.429 494.138C279.41 495.602 278.363 497.053 277.374 498.538C274.57 502.747 271.791 506.97 269.001 511.19C268.812 511.477 268.681 511.93 268.424 512.018C267.58 512.302 266.687 512.595 265.828 512.562C265.57 512.551 265.198 511.499 265.145 510.901C264.727 506.296 264.384 501.685 263.988 497.076C263.932 496.42 263.707 495.784 263.559 495.139C263.232 495.678 262.851 496.191 262.587 496.759C261.105 499.943 259.77 503.202 258.155 506.317C256.541 509.431 254.041 511.593 250.424 512.111C247.711 512.495 245.872 510.976 245.745 508.336C245.73 508.009 245.748 507.683 245.749 507.353C245.38 507.49 244.98 507.574 244.649 507.774C242.681 508.951 240.76 510.204 238.765 511.33C237.453 512.073 235.867 512.032 234.985 510.912C234.465 510.251 234.866 508.849 234.897 507.782C234.904 507.544 235.146 507.318 235.178 507.072C235.228 506.694 235.196 506.301 235.199 505.917C234.924 506.091 234.645 506.261 234.378 506.447C232.482 507.765 230.699 509.304 228.668 510.367C224.652 512.47 221.455 511.155 220.903 506.472C220.735 505.045 220.703 503.5 221.088 502.139C221.732 499.844 222.55 497.551 223.666 495.45C225.826 491.38 228.919 488.091 232.823 485.583C235.363 483.958 238.088 483.112 241.261 483.694ZM225.817 503.219C226.215 503.973 226.563 505.686 227.574 506.294C229.065 507.191 230.838 506.606 232.275 505.371C234.198 503.724 235.862 501.904 236.667 499.462C237.815 495.963 238.872 492.44 240.027 488.945C240.391 487.85 240.071 487.257 238.981 487.154C236.435 486.91 233.9 487.131 231.993 488.991C228.215 492.678 226.541 497.379 225.817 503.219Z" fill="white"/>
<path d="M180.496 503.497C181.23 500.886 181.712 498.166 182.757 495.685C184.525 491.489 186.798 487.517 190.387 484.562C191.815 483.382 193.438 482.344 195.134 481.62C197.773 480.499 198.894 480.955 200.653 483.213C200.845 483.464 201.098 483.66 201.323 483.884C201.538 483.551 201.828 483.242 201.961 482.876C202.909 480.216 203.82 477.539 204.754 474.869C206.718 469.243 210.931 465.827 216.294 463.941C218.374 463.209 220.86 463.502 223.156 463.551C224.409 463.58 225.183 464.597 225.152 465.846C225.117 467.176 224.276 468.121 222.935 468.265C222.023 468.363 221.062 468.134 220.138 467.981C219.041 467.801 217.962 467.486 216.862 467.339C213.873 466.949 212.255 467.646 211.068 470.431C209.634 473.799 208.514 477.304 207.354 480.781C206.936 482.03 206.8 483.375 206.534 484.678C207.624 484.031 208.667 483.271 209.816 482.753C212.309 481.627 214.925 481.059 217.434 482.592C219.804 484.036 220.219 486.487 219.829 488.951C218.609 496.665 215.269 503.291 209.191 508.347C208.219 509.156 207.025 509.757 205.845 510.242C204.047 510.988 202.369 510.816 200.885 509.319C199.515 507.929 199.441 507.989 198.831 509.686C197.039 514.673 194.546 519.189 190.374 522.639C187.09 525.353 183.475 527.152 179.117 526.794C178.091 526.711 176.873 526.283 176.179 525.581C175.578 524.972 175.245 523.664 175.453 522.83C175.616 522.183 176.768 521.409 177.527 521.355C179.125 521.243 180.751 521.598 182.368 521.71C183.714 521.8 185.078 521.948 186.417 521.847C188.568 521.684 190.113 520.531 190.875 518.477C192.041 515.35 193.203 512.218 194.281 509.062C194.512 508.385 194.368 507.584 194.396 506.835C193.828 507.188 193.287 507.589 192.687 507.879C191.093 508.652 189.528 509.827 187.853 510.037C183.966 510.522 180.712 509.266 180.496 503.497ZM214.616 489.956C214.794 486.603 212.474 484.841 209.514 486.414C207.86 487.291 206.106 488.721 205.319 490.349C203.618 493.874 202.43 497.66 201.189 501.391C200.61 503.133 202.064 506.245 203.532 507.014C204.96 507.765 207.018 507.178 208.622 505.544C208.92 505.235 209.204 504.908 209.44 504.553C212.388 500.127 214.335 495.338 214.616 489.956ZM186.17 500.852C186.17 501.669 186.147 502.016 186.171 502.357C186.368 505.2 187.919 506.269 190.695 505.526C192.932 504.933 194.547 503.511 195.404 501.473C196.861 498.005 198.117 494.451 199.372 490.899C200.119 488.784 199.056 485.394 197.549 484.638C196.018 483.87 193.48 484.676 191.873 486.713C188.513 490.991 186.596 495.879 186.17 500.852Z" fill="white"/>
<path d="M304.344 488.348C303.958 489.913 303.425 492.254 302.809 494.57C301.735 498.626 300.573 502.663 299.549 506.73C299.383 507.4 299.492 508.576 299.906 508.839C300.488 509.209 301.617 509.227 302.261 508.899C305.914 507.042 308.655 504.202 310.028 500.325C311.43 496.364 312.488 492.283 313.75 488.271C313.988 487.512 314.371 486.305 314.856 486.214C316.159 485.976 317.556 486.208 318.902 486.369C318.96 486.372 319.016 487.565 318.85 488.142C317.264 493.485 315.611 498.815 314.031 504.16C313.595 505.632 313.275 507.148 313.012 508.664C312.924 509.181 313.051 510.146 313.303 510.224C313.85 510.401 314.673 510.344 315.133 510.021C316.249 509.236 317.191 508.213 318.265 507.361C318.602 507.091 319.486 506.877 319.535 506.968C320.515 508.702 322.455 508.129 323.872 508.762C326.02 509.722 327.891 509.118 328.938 507.094C331.501 502.153 333.866 497.11 336.268 492.089C336.493 491.619 336.388 490.994 336.435 490.442C335.779 490.412 334.997 490.144 334.491 490.409C333.294 491.046 332.208 491.911 331.113 492.731C330.449 493.226 329.731 493.755 329.204 492.788C329.008 492.427 329.317 491.442 329.698 491.186C332.097 489.558 334.45 487.758 337.074 486.577C340.408 485.084 341.853 486.2 342.06 489.867C342.391 495.693 342.627 501.525 343.081 507.34C343.185 508.687 344.012 509.976 344.508 511.29C345.687 510.702 346.901 510.169 348.028 509.495C348.682 509.108 349.139 508.403 349.781 507.993C350.114 507.781 350.826 507.712 351.059 507.922C351.322 508.157 351.463 509.009 351.269 509.195C348.623 511.754 346.076 514.531 342.237 515.278C340.231 515.666 338.705 514.235 338.414 511.71C338.094 508.894 337.938 506.062 337.72 503.234C337.591 501.524 337.51 499.812 337.345 498.104C337.31 497.735 337.022 497.396 336.848 497.038C336.625 497.363 336.352 497.666 336.183 498.016C334.717 501.114 333.27 504.223 331.823 507.33C330.511 510.144 328.606 512.489 325.773 513.761C324.457 514.348 322.785 514.488 321.332 514.329C319.65 514.145 318.573 512.901 318.641 511.092C318.685 509.906 318.311 509.92 317.545 510.497C316.583 511.215 315.666 512.004 314.679 512.68C313.91 513.21 313.099 513.709 312.24 514.061C309.711 515.091 308.016 514.029 307.806 511.351C307.792 511.179 307.81 511.01 307.802 510.838C307.753 509.874 307.7 508.915 307.651 507.954C306.907 508.504 306.186 509.088 305.41 509.585C303.469 510.841 301.554 512.158 299.524 513.253C298.064 514.042 296.293 514.466 294.894 513.299C293.537 512.171 293.499 510.459 293.976 508.792C295.51 503.438 297.041 498.085 298.58 492.731C298.671 492.406 298.892 492.089 298.908 491.762C298.952 490.942 298.917 490.123 298.913 489.3C298.137 489.521 297.293 489.621 296.602 489.997C295.704 490.486 294.998 491.338 294.081 491.765C293.644 491.967 292.887 491.609 292.348 491.349C292.243 491.3 292.317 490.341 292.571 490.153C295.238 488.154 297.73 485.829 301.104 485.012C303.449 484.453 304.385 485.218 304.344 488.348Z" fill="white"/>
<path d="M161.538 451.063C159.236 451.095 158.787 450.451 159.316 448.197C159.519 447.332 159.57 446.427 159.692 445.546C159.019 446.07 158.365 446.623 157.669 447.114C156.063 448.249 154.538 449.558 152.796 450.435C149.37 452.158 146.94 451.232 145.632 447.693C145.053 446.125 144.744 446.34 143.635 447.214C141.846 448.621 139.968 450.055 137.898 450.948C135.373 452.038 133.615 450.839 133.242 448.014C132.771 444.441 132.529 440.841 132.178 437.255C132.086 436.318 131.982 435.376 131.823 434.447C131.771 434.149 131.518 433.885 131.359 433.602C131.174 433.875 130.943 434.124 130.808 434.422C129.286 437.776 127.881 441.191 126.237 444.484C124.834 447.293 122.902 449.803 119.819 450.857C118.472 451.319 116.791 451.316 115.394 450.978C113.786 450.59 113.143 448.981 113.522 447.522C113.939 445.923 115.376 444.865 117.025 445.238C118.69 445.617 120.497 446.631 121.917 445.307C123.44 443.883 124.798 442.131 125.733 440.266C127.541 436.683 129.009 432.927 130.606 429.233C130.775 428.84 130.883 428.419 131.005 428.007C131.368 426.769 130.784 426.267 129.704 426.728C128.544 427.228 127.501 428.015 126.435 428.723C125.87 429.1 125.416 429.695 124.809 429.952C124.483 430.089 123.847 429.815 123.53 429.528C123.362 429.376 123.43 428.632 123.644 428.436C126.428 425.88 129.221 423.269 133.127 422.575C135.249 422.197 136.096 423.004 136.303 425.53C136.72 430.66 137.013 435.798 137.422 440.925C137.55 442.542 137.765 444.175 138.16 445.743C138.575 447.402 139.408 447.721 140.783 446.757C143.09 445.135 145.19 443.43 146.063 440.42C147.939 433.958 151.53 428.549 157.431 425.085C159.433 423.908 161.858 423.312 164.169 422.853C165.858 422.518 167.743 423.186 169.15 421.586C169.353 421.357 169.959 421.491 170.38 421.452C170.407 421.911 170.554 422.403 170.439 422.821C169.379 426.705 168.196 430.556 167.209 434.457C166.392 437.686 165.744 440.953 165.137 444.227C165.018 444.88 165.426 445.626 165.59 446.328C166.206 446.084 166.894 445.94 167.424 445.574C168.482 444.845 169.414 443.938 170.484 443.235C170.772 443.044 171.432 443.216 171.795 443.435C171.972 443.539 172.03 444.293 171.856 444.473C169.087 447.316 166.134 449.918 162.175 450.999C161.938 451.069 161.67 451.052 161.538 451.063ZM150.558 441.808C150.625 443.779 150.336 445.47 152.099 446.309C153.847 447.143 155.293 446.258 156.539 445.171C157.625 444.226 158.973 443.242 159.44 441.987C161.135 437.447 162.522 432.79 163.992 428.165C164.315 427.144 163.713 426.783 162.775 426.731C159.795 426.57 157.093 427.256 155.171 429.671C152.257 433.332 150.714 437.55 150.558 441.808Z" fill="white"/>
<path d="M176.315 447.241C176.955 445.539 177.945 442.911 178.936 440.283C180.385 436.448 181.849 432.619 183.271 428.77C183.426 428.344 183.342 427.825 183.368 427.349C182.808 427.341 182.126 427.123 181.708 427.363C180.448 428.088 179.301 429.008 178.085 429.811C177.856 429.963 177.502 429.928 177.207 429.983C177.187 429.661 177.084 429.313 177.168 429.019C177.833 426.738 184.448 422.794 186.694 423.382C188.252 423.789 189.025 425.029 188.778 426.496C188.399 428.763 187.862 431.042 187.066 433.194C185.764 436.725 184.197 440.157 182.755 443.637C182.527 444.191 182.334 444.768 182.201 445.35C181.802 447.133 182.33 447.68 184.026 447.046C187.357 445.806 190.183 443.788 191.585 440.452C193.406 436.122 194.926 431.671 196.509 427.246C197.198 425.32 200.049 424.343 201.596 425.719C201.917 426.005 201.858 426.972 201.675 427.53C200.411 431.353 199.065 435.15 197.745 438.959C196.879 441.455 195.99 443.946 195.168 446.462C194.997 446.981 195.077 447.579 195.04 448.141C195.688 448.153 196.468 448.409 196.962 448.139C200.222 446.344 203.411 444.336 204.823 440.673C206.362 436.682 207.586 432.569 209.019 428.531C209.311 427.709 209.834 426.463 210.421 426.356C211.623 426.141 212.958 426.496 214.2 426.789C214.379 426.829 214.528 427.867 214.374 428.34C212.757 433.223 211.077 438.083 209.406 442.95C208.794 444.733 208.151 446.512 207.572 448.307C207.45 448.681 207.561 449.129 207.565 449.541C208.03 449.53 208.587 449.681 208.948 449.478C209.981 448.894 210.891 448.072 211.944 447.536C212.505 447.249 213.264 447.356 213.935 447.281C213.731 447.863 213.699 448.743 213.292 448.978C210.566 450.56 207.822 452.141 204.944 453.411C204.03 453.81 202.462 453.586 201.647 453.01C201.211 452.695 201.656 451.013 201.857 449.978C201.984 449.325 202.441 448.74 202.662 448.095C202.76 447.806 202.641 447.437 202.623 447.107C202.332 447.224 202.015 447.301 201.755 447.467C199.665 448.803 197.624 450.218 195.486 451.471C194.544 452.024 193.439 452.378 192.364 452.6C189.773 453.13 188.375 451.606 188.98 449.072C189.166 448.286 189.247 447.47 189.379 446.67C188.691 447.137 188.043 447.684 187.309 448.058C184.895 449.281 182.544 450.748 179.989 451.546C177.706 452.259 176.183 450.656 176.315 447.241Z" fill="white"/>
<path d="M331.086 29.7021C328.14 29.614 327.515 30.0406 327.136 32.2531C326.572 35.5508 326.043 38.8556 325.601 42.1729C325.36 43.991 326.068 44.5714 327.54 43.5588C329.412 42.2708 331.135 40.6751 332.631 38.9577C333.908 37.4878 334.751 35.6445 335.821 33.9873C337.096 32.0139 338.538 30.2266 340.971 29.5931C344.508 28.6756 347.608 31.6783 346.801 35.2375C346.58 36.2291 346.144 36.2641 345.374 35.6963C343.041 33.9845 342.362 34.0991 340.276 36.12C337.148 39.1479 333.96 42.1198 330.815 45.135C330.623 45.321 330.429 45.6972 330.488 45.9168C331.423 49.4607 332.34 53.0101 333.406 56.5149C333.667 57.3624 334.336 58.1512 334.982 58.8029C336.159 59.9902 337.459 59.663 338.74 58.87C339.926 58.1344 341.308 57.7945 342.249 58.9539C342.779 59.6084 342.881 60.8741 342.703 61.772C342.435 63.1635 341.295 63.8264 339.869 63.9523C336.799 64.2208 333.604 62.5566 332.3 59.6196C331.514 57.8421 331.167 55.8618 330.692 53.957C330.236 52.1305 330.005 50.2383 329.41 48.4649C329.105 47.567 328.364 46.6426 327.564 46.1251C325.98 45.0972 325.061 45.5671 324.745 47.4622C324.223 50.5921 323.877 53.7514 323.328 56.8729C323.012 58.7036 323.777 59.6434 325.423 60.1007C325.836 60.2168 326.321 60.207 326.656 60.4266C327.026 60.6699 327.262 61.1161 327.555 61.4741C327.135 61.6671 326.686 62.0671 326.294 62.0209C323.826 61.7272 321.371 61.3328 318.916 60.9748C317.816 60.8154 316.694 60.7385 315.624 60.4671C315.26 60.3748 315.021 59.8014 314.726 59.4476C315.081 59.2644 315.416 58.9903 315.793 58.919C316.379 58.8071 316.99 58.8448 317.59 58.7987C318.963 58.6882 319.76 58.0295 319.963 56.5834C320.405 53.4409 320.961 50.3194 321.428 47.1796C321.729 45.1685 321.249 44.5896 319.211 44.9867C318.226 45.1769 317.071 45.8231 316.51 46.6244C315.098 48.6551 314.037 50.9207 312.73 53.0269C311.829 54.4772 310.881 55.9317 309.727 57.1778C307.869 59.1875 304.601 59.684 302.112 58.5917C300.711 57.9791 299.833 56.9372 300.005 55.403C300.089 54.6562 300.524 53.6787 301.113 53.3122C302.409 52.5123 303.673 52.9165 304.853 53.9514C307.135 55.9471 308.289 55.8156 310.066 53.3122C311.099 51.8536 311.842 50.1893 312.82 48.6845C313.749 47.258 314.686 45.8007 315.86 44.591C316.662 43.7644 316.555 43.4176 315.978 42.5351C314.201 39.8247 312.591 37.0011 310.938 34.211C310.414 33.3257 310.001 32.3719 309.449 31.5077C307.731 28.8309 307.184 28.6546 304.298 30.0196C303.407 30.4392 302.935 30.3161 302.961 29.3469C303.018 27.2309 305.305 24.7457 307.329 24.4912C309.413 24.2325 312.162 25.9065 312.893 27.9092C314.04 31.0559 315.136 34.2222 316.322 37.3535C317.122 39.4625 318.215 41.4065 320.157 42.7141C321.547 43.6442 322.049 43.412 322.291 41.7044C322.743 38.5647 323.154 35.4194 323.629 32.2838C324.026 29.6434 323.849 29.3427 321.547 28.4337C320.789 28.1372 319.345 28.5316 319.594 27.0813C319.638 26.8253 321.231 26.6659 322.081 26.754C324.899 27.0435 327.704 27.4491 330.507 27.8463C331.271 27.9554 332.512 27.6281 332.284 28.9917C332.206 29.4043 331.183 29.6504 331.086 29.7021Z" fill="white"/>
<path d="M444.308 104.535C443.581 104.239 442.139 103.871 440.941 103.114C436.521 100.323 432.172 97.4123 427.826 94.4978C427.449 94.2461 427.324 93.6195 427.085 93.1664C427.548 93.1314 428.047 92.965 428.465 93.0825C432.085 94.0768 432.103 94.1104 434.276 90.9371C435.974 88.4603 437.581 85.9192 439.274 83.4396C439.938 82.4676 439.92 81.8942 438.808 81.2061C436.329 79.6719 433.948 77.9839 431.547 76.3308C430.367 75.5197 429.532 75.4288 428.664 76.8888C427.046 79.616 425.202 82.2131 423.487 84.8843C421.885 87.3737 421.97 87.8841 423.979 89.9596C424.343 90.3358 424.5 90.9078 424.753 91.3902C424.157 91.3413 423.443 91.4881 422.987 91.2098C420.199 89.5288 417.45 87.7736 414.738 85.9723C414.345 85.7108 414.199 85.0661 413.943 84.5976C414.454 84.5766 415.058 84.3668 415.465 84.564C417.848 85.7262 419.027 85.5416 420.913 82.62C424.964 76.3532 429.139 70.1661 433.249 63.9384C435.17 61.028 435.115 60.6868 432.734 58.2771C432.428 57.9666 432.301 57.4827 432.089 57.0814C432.618 57.0422 433.289 56.7737 433.653 57.0017C436.704 58.9121 439.705 60.905 442.7 62.9063C442.914 63.0503 442.953 63.4587 443.074 63.7426C442.714 63.8908 442.213 64.2754 442.02 64.1566C438.175 61.7777 436.673 64.6586 435.027 67.2194C433.867 69.0263 432.745 70.8612 431.541 72.6359C430.951 73.5044 430.872 74.0652 431.884 74.6987C434.502 76.3364 437.081 78.0398 439.632 79.7782C440.641 80.4649 441.315 80.3264 441.959 79.3195C443.748 76.5014 445.581 73.7058 447.391 70.8989C448.179 69.6752 447.887 68.6207 446.854 67.6977C446.409 67.2977 445.874 66.9634 445.524 66.4935C445.334 66.2376 445.362 65.7271 445.474 65.3887C445.517 65.2544 446.103 65.1523 446.348 65.2586C446.97 65.5299 447.549 65.9075 448.125 66.2753C450.593 67.8361 453.067 69.3815 455.49 71.0066C455.898 71.2821 456.05 71.9352 456.323 72.4135C455.772 72.4387 455.178 72.6149 454.68 72.4611C451.358 71.4513 451.32 71.3968 449.414 74.1281C447.796 76.4483 446.332 78.8748 444.736 81.2131C444.045 82.2312 444.21 82.8718 445.247 83.4885C447.016 84.543 448.686 85.7639 450.482 86.7611C456.05 89.8449 456.35 96.3635 452.065 101.29C450.262 103.365 447.816 104.443 444.308 104.535ZM451.58 92.6699C451.758 91.1889 451 89.3526 449.183 88.038C447.658 86.9303 446.022 85.9807 444.51 84.8647C443.414 84.0549 442.693 84.2927 442.007 85.3598C440.486 87.7359 438.903 90.0756 437.39 92.4615C434.535 96.969 434.599 96.9019 438.924 99.9451C441.465 101.735 443.985 102.33 446.813 100.818C449.765 99.2388 451.411 96.818 451.58 92.6699Z" fill="white"/>
<path d="M222.101 449.967C219.512 449.956 219.59 449.953 220.279 447.336C221.935 441.043 223.507 434.721 225.06 428.404C225.206 427.805 224.983 427.12 224.933 426.475C224.312 426.675 223.603 426.748 223.093 427.103C222.258 427.682 221.609 428.534 220.767 429.098C220.323 429.396 219.631 429.321 219.049 429.418C219.13 428.896 219.02 428.186 219.322 427.885C221.892 425.306 224.761 423.146 228.366 422.211C230.294 421.715 231.008 422.297 230.667 424.229C230.234 426.677 229.584 429.087 229.062 431.52C228.946 432.058 228.981 432.629 228.947 433.186C229.41 432.83 229.939 432.533 230.326 432.112C232.881 429.331 235.329 426.449 237.965 423.75C239.935 421.729 242.371 420.554 245.324 420.632C246.802 420.67 247.621 421.312 247.663 422.758C247.705 424.179 246.912 425.241 245.506 425.074C238.277 424.222 235.297 430.081 231.155 434.064C230.112 435.067 231.575 435.32 232.067 435.594C235.143 437.282 237.145 439.809 238.475 443.029C239.978 446.67 241.6 450.267 243.324 453.807C244.14 455.481 245.139 457.131 246.362 458.524C248.178 460.593 250.616 460.958 253.188 460.089C254.362 459.694 255.196 458.909 254.437 457.557C253.613 456.092 253.943 454.794 255.144 453.923C255.632 453.574 256.919 453.729 257.446 454.15C258.612 455.076 258.746 456.482 258.299 457.906C257.513 460.411 254.68 462.58 251.611 462.724C247.352 462.921 243.73 461.435 240.907 458.154C237.778 454.515 235.951 450.183 234.243 445.779C233.437 443.707 232.607 441.638 231.766 439.578C231.573 439.108 231.4 438.541 231.035 438.243C230.193 437.56 229.24 437.016 228.332 436.412C227.992 437.261 227.552 438.086 227.335 438.963C226.663 441.706 226.078 444.472 225.446 447.228C224.818 449.981 224.814 449.978 222.101 449.967Z" fill="white"/>
<path d="M150.304 116.321C150.691 117.526 151.151 118.713 151.428 119.946C151.533 120.415 151.207 120.983 151.079 121.506C150.687 121.259 150.21 121.084 149.925 120.748C149.43 120.167 149.04 119.491 148.626 118.844C147.054 116.385 146.057 114.142 146.934 110.812C148.516 104.818 146.475 99.0947 143.563 93.7957C142.081 91.0979 140.38 88.5064 138.603 85.989C137.094 83.8507 136.668 83.866 134.343 85.1415C134.117 85.266 133.933 85.5135 133.702 85.5611C133.185 85.666 132.651 85.68 132.124 85.7289C132.323 85.245 132.386 84.5863 132.743 84.3094C134.639 82.8353 136.618 81.4634 138.558 80.0522C143.693 76.314 148.826 72.5729 153.958 68.8304C154.233 68.629 154.478 68.257 154.767 68.2234C155.212 68.1717 155.683 68.3465 156.145 68.4248C156.033 68.794 156.023 69.2499 155.794 69.5226C153.131 72.668 153.168 72.6274 155.595 75.9126C160.033 81.9165 164.401 87.9736 168.826 93.9887C170.627 96.4389 171.056 96.562 173.69 95.0837C174.512 94.6208 175.072 94.4488 175.642 95.2376C176.75 96.7704 177.843 98.3129 178.892 99.8835C179.033 100.092 178.893 100.489 178.881 100.798C178.574 100.759 178.18 100.829 177.975 100.665C173.609 97.162 170.064 98.9227 166.32 102.03C162.1 105.528 157.526 108.605 153.06 111.799C151.495 112.919 150.342 114.163 150.304 116.321ZM166.741 97.085C166.542 96.7298 166.44 96.4948 166.292 96.2907C161.135 89.2155 155.964 82.1473 150.807 75.0693C150.07 74.0581 149.384 74.177 148.451 74.9014C145.941 76.8454 143.353 78.6901 140.797 80.5753C138.867 81.9976 138.911 81.971 140.204 84.0101C141.988 86.8324 143.796 89.649 145.418 92.5664C148.086 97.3703 149.753 102.46 149.313 108.072C149.251 108.857 148.941 110.5 150.637 109.28C155.794 105.577 160.879 101.777 165.983 97.9969C166.297 97.7647 166.5 97.3801 166.741 97.085Z" fill="white"/>
<path d="M367.579 512.123C367.608 511.869 367.654 511.694 367.643 511.527C367.613 511.112 367.553 510.7 367.502 510.284C367.153 510.484 366.79 510.666 366.457 510.886C364.294 512.281 362.208 513.797 359.961 515.046C358.335 515.948 356.427 516.889 354.656 515.494C352.878 514.087 353.403 512.063 353.903 510.232C355.331 505.026 356.876 499.85 358.276 494.636C358.558 493.587 359.66 492.117 358.294 491.443C357.63 491.119 356.225 492.188 355.211 492.735C354.618 493.055 354.191 493.79 353.589 493.956C353.094 494.09 352.446 493.658 351.863 493.475C352.02 493.054 352.052 492.443 352.358 492.24C354.924 490.552 357.427 488.703 360.176 487.37C362.858 486.073 364.438 487.359 363.88 490.328C363.171 494.109 362.089 497.82 361.163 501.563C360.583 503.893 359.916 506.206 359.456 508.561C359.295 509.386 359.325 510.711 359.815 511.072C360.366 511.476 361.699 511.339 362.394 510.934C365.877 508.894 368.722 506.214 369.921 502.182C371.118 498.159 372.28 494.121 373.457 490.092C373.981 488.298 377.39 487.275 378.705 488.556C378.912 488.761 378.895 489.338 378.796 489.692C378.294 491.5 377.712 493.292 377.194 495.103C375.758 500.135 374.311 505.165 372.962 510.223C372.761 510.968 373.044 511.839 373.1 512.65C373.927 512.386 374.851 512.273 375.554 511.817C376.479 511.224 377.175 510.281 378.077 509.642C378.45 509.379 379.106 509.511 379.632 509.465C379.538 510.035 379.653 510.841 379.313 511.133C377.573 512.655 375.761 514.105 373.89 515.466C372.481 516.487 370.892 517.351 369.122 516.378C367.384 515.436 367.574 513.677 367.579 512.123Z" fill="white"/>
<path d="M247.426 443.739C247.57 439.746 249.155 436.236 251.268 432.972C253.468 429.573 255.951 426.315 259.673 424.491C261.622 423.532 263.847 423.049 266.003 422.65C267.715 422.333 269.611 422.971 271.001 421.312C271.205 421.066 271.937 421.263 272.424 421.255C272.404 421.811 272.483 422.39 272.357 422.923C270.745 429.667 269.068 436.398 267.513 443.156C267.308 444.047 267.674 445.065 267.776 446.024C268.596 445.628 269.469 445.314 270.226 444.82C271.01 444.31 271.634 443.556 272.418 443.043C272.734 442.838 273.284 442.985 273.73 442.977C273.743 443.441 273.961 444.105 273.734 444.343C271.065 447.163 268.136 449.697 264.222 450.525C261.527 451.093 260.806 450.107 261.575 447.403C261.667 447.073 261.833 446.756 261.884 446.42C261.945 446.016 261.923 445.592 261.936 445.179C261.585 445.357 261.2 445.491 260.884 445.718C259.086 447.027 257.426 448.584 255.492 449.635C250.705 452.244 247.561 449.873 247.375 444.519C247.367 444.255 247.407 443.999 247.426 443.739ZM252.462 442.022C252.58 443.245 252.501 444.898 254.125 445.772C255.726 446.635 257.219 445.896 258.45 444.988C260.553 443.44 262.212 441.443 262.976 438.878C264.03 435.344 264.978 431.776 266.014 428.236C266.381 426.99 265.929 426.45 264.703 426.414C262.152 426.345 259.771 426.701 257.857 428.67C254.319 432.309 252.966 436.826 252.462 442.022Z" fill="white"/>
<path d="M487.207 136.917C488.142 137.124 489.079 137.328 490.012 137.536C489.177 138.138 488.409 138.873 487.493 139.308C486.028 140.009 484.465 140.503 482.949 141.1C481.903 141.51 481.056 141.51 480.206 140.531C475.365 134.969 470.46 129.458 465.578 123.931C465.352 123.673 465.016 123.454 464.915 123.157C464.798 122.817 464.886 122.407 464.885 122.028C465.271 122.046 465.656 122.035 466.034 122.092C466.186 122.113 466.314 122.285 466.456 122.382C468.991 124.095 469.928 124.11 472.114 122.173C476.862 117.96 481.568 113.694 486.298 109.454C487.317 108.536 488.372 107.659 489.381 106.727C491.751 104.534 491.827 103.99 490.251 101.239C490.21 101.165 490.122 101.097 490.114 101.022C490.062 100.588 490.027 100.149 489.987 99.7129C490.428 99.8136 491.039 99.766 491.287 100.04C493.355 102.338 495.343 104.703 497.375 107.033C499.969 110.013 502.553 112.999 505.191 115.936C506.174 117.031 506.391 118.035 505.632 119.383C504.622 121.175 503.859 123.101 502.88 124.906C502.661 125.308 501.974 125.457 501.501 125.72C501.471 125.249 501.332 124.755 501.426 124.309C501.676 123.137 502.185 122.001 502.311 120.822C502.897 115.35 499.919 111.553 496.105 108.248C494.889 107.195 493.493 107.542 492.347 108.547C489.97 110.64 487.65 112.799 485.276 114.9C484.491 115.592 484.277 116.189 485.104 117.025C485.948 117.876 486.645 118.871 487.475 119.732C489.882 122.217 491.505 122.427 494.577 120.81C495.026 120.573 495.61 120.599 496.133 120.502C495.894 120.994 495.77 121.611 495.401 121.957C492.699 124.442 489.964 126.892 487.196 129.296C486.824 129.615 486.172 129.607 485.652 129.749C485.824 129.237 485.888 128.654 486.182 128.23C488.511 124.86 488.486 123.572 485.776 120.248C482.778 116.578 483.339 116.416 479.702 119.808C477.691 121.684 475.579 123.442 473.599 125.347C471.87 127.011 471.697 128.023 473.018 129.86C476.476 134.655 480.909 137.704 487.207 136.917Z" fill="white"/>
<path d="M397.76 49.8284C397.76 51.1165 397.79 52.4059 397.737 53.6912C397.724 53.9681 397.434 54.2366 397.271 54.5065C396.979 54.2674 396.526 54.0786 396.422 53.7765C396.124 52.887 396.008 51.936 395.744 51.0354C394.895 48.1152 393.342 45.6986 390.488 44.3923C388.702 43.5756 386.877 42.7924 385.002 42.2442C383.066 41.6792 381.877 42.3435 381.091 44.2007C379.959 46.8887 378.937 49.6229 377.811 52.3136C377.303 53.5318 377.568 54.2758 378.85 54.6716C379.587 54.8981 380.294 55.2198 381.02 55.4883C385.064 56.9918 386.933 56.6197 388.744 53.0745C388.909 52.7528 389.478 52.6353 389.861 52.4255C389.941 52.7989 390.187 53.2395 390.071 53.5332C388.621 57.2043 387.133 60.8601 385.602 64.4949C385.483 64.7802 384.97 64.9005 384.64 65.0949C384.527 64.7942 384.349 64.5005 384.32 64.1914C384.293 63.86 384.404 63.5145 384.458 63.1747C384.997 59.9469 384.112 58.3805 381.108 57.2449C376.596 55.5373 376.581 55.5289 374.715 59.9245C373.743 62.2139 372.814 64.5201 371.917 66.8388C371.141 68.8527 371.608 70.0709 373.583 71.0638C379.015 73.798 384.401 74.1238 389.685 70.6527C390.046 70.4163 390.383 70.0653 390.776 69.9897C391.281 69.8932 391.827 70.0191 392.356 70.0513C392.149 70.4708 392.016 70.9547 391.717 71.296C390.196 73.0442 388.625 74.7476 387.091 76.4832C386.388 77.2761 385.692 77.5153 384.605 77.0901C378.623 74.7504 372.612 72.4973 366.609 70.2163C365.569 69.8205 364.495 69.4863 363.497 68.9982C363.151 68.8276 362.989 68.2835 362.743 67.9087C363.09 67.7269 363.426 67.415 363.783 67.3871C365.036 67.292 366.684 67.7759 367.461 67.1479C368.557 66.2598 369.132 64.6305 369.719 63.2292C372.267 57.14 374.74 51.0172 377.242 44.907C377.403 44.5112 377.572 44.1168 377.713 43.7154C378.76 40.7645 378.597 40.3352 376.065 38.6024C375.665 38.3311 375.459 37.7786 375.165 37.3577C375.679 37.2752 376.272 36.9829 376.697 37.1437C383.273 39.6079 389.828 42.1435 396.396 44.6329C397.407 45.0161 397.932 45.5965 397.844 46.7363C397.769 47.76 397.83 48.7963 397.83 49.827C397.808 49.8284 397.781 49.8284 397.76 49.8284Z" fill="white"/>
<path d="M373.921 533.855C372.502 533.347 371.006 532.992 369.695 532.287C368.644 531.722 368.268 530.637 368.833 529.389C369.473 527.98 370.653 528.218 371.695 528.529C372.832 528.871 373.866 529.556 374.986 529.971C377.208 530.794 378.63 530.313 379.62 528.143C380.505 526.206 381.158 524.152 381.767 522.11C384.492 512.99 387.172 503.858 389.842 494.721C390.021 494.107 389.947 493.415 389.991 492.76C389.302 492.935 388.53 492.97 387.939 493.314C386.914 493.921 386.043 494.787 385.015 495.401C384.625 495.636 383.996 495.483 383.474 495.51C383.519 494.914 383.327 494.06 383.646 493.767C386.322 491.317 389.221 489.168 392.82 488.259C395.526 487.576 396.597 488.671 395.796 491.356C392.862 501.203 389.931 511.051 386.865 520.857C385.678 524.646 383.892 528.156 380.793 530.854C378.732 532.648 376.722 533.517 373.921 533.855Z" fill="white"/>
<path d="M208.105 41.7491C211.59 41.8764 214.254 43.212 215.72 46.3028C217.449 49.9558 217.042 53.4759 214.474 56.6463C212.67 58.877 210.071 59.8448 207.512 60.8588C206.554 61.2378 205.582 61.5762 204.645 61.9986C202.408 63.0027 202.401 63.0251 203.339 65.4026C204.189 67.5563 205.08 69.6933 205.947 71.8415C207.053 74.5798 207.949 75.0511 210.901 74.5518C211.411 74.4637 211.969 74.6595 212.505 74.7238C212.133 75.1882 211.862 75.8776 211.378 76.0832C208.229 77.444 205.047 78.7264 201.843 79.9516C201.452 80.1012 200.874 79.7712 200.38 79.6607C200.631 79.2761 200.799 78.781 201.143 78.5237C203.782 76.528 203.966 76.0119 202.741 72.9449C200.035 66.1788 197.32 59.4155 194.58 52.6633C193.283 49.4635 193.07 49.3963 189.586 50.0257C189.177 50.0998 188.71 49.8537 188.271 49.7544C188.562 49.3194 188.758 48.6411 189.159 48.4803C194.65 46.2972 200.162 44.163 205.693 42.0806C206.47 41.7869 207.376 41.8414 208.105 41.7491ZM213.085 52.2787C213.299 46.714 209.601 43.3547 204.687 44.3252C202.542 44.749 200.484 45.714 198.449 46.5811C196.985 47.2034 196.483 48.388 197.118 49.953C198.437 53.2018 199.775 56.4436 201.024 59.7189C201.503 60.9748 202.313 61.2531 203.416 60.8112C205.16 60.1133 206.85 59.277 208.593 58.5693C211.697 57.3093 212.688 54.694 213.085 52.2787Z" fill="white"/>
<path d="M85.0672 134.026C84.589 134.292 83.8199 134.792 82.9935 135.153C82.6048 135.325 82.0972 135.233 81.6442 135.261C81.6596 134.862 81.5128 134.334 81.7127 134.09C83.2802 132.167 84.8882 130.275 86.5522 128.437C86.808 128.158 87.4233 128.207 87.8707 128.105C87.8288 128.481 87.8973 128.92 87.7253 129.223C86.8444 130.8 87.8414 131.281 89.0719 131.45C94.5951 132.208 100.122 132.931 105.655 133.607C107.452 133.825 107.542 133.647 106.81 132.118C104.709 127.703 102.617 123.28 100.48 118.881C99.4051 116.672 99.3772 116.719 97.1875 117.75C96.8309 117.918 96.301 117.722 95.8507 117.695C95.8829 117.319 95.7794 116.837 95.9738 116.588C97.2867 114.893 98.6375 113.221 100.044 111.605C100.308 111.303 100.885 111.266 101.314 111.11C101.318 111.571 101.504 112.14 101.3 112.47C100.19 114.263 100.729 115.86 101.557 117.578C104.867 124.454 108.122 131.355 111.337 138.275C112.341 140.437 113.361 142.627 114 144.911C114.69 147.375 113.616 149.439 111.64 151.014C110.575 151.86 109.298 152.106 108.397 151.084C107.826 150.436 107.531 149.2 107.687 148.334C107.928 147.016 108.995 146.5 110.442 146.705C112.504 146.996 113.058 146.46 112.422 144.54C111.753 142.524 110.763 140.602 109.794 138.7C109.571 138.259 108.873 137.89 108.343 137.802C100.994 136.567 93.6358 135.388 86.2823 134.197C86.0236 134.155 85.7677 134.124 85.0672 134.026Z" fill="white"/>
<path d="M252.274 64.9508C249.873 64.976 248.442 63.3131 249.241 61.4251C250.036 59.5357 251.854 59.2238 253.345 60.7161C255.193 62.5691 255.75 62.5356 256.74 60.1846C257.464 58.4658 257.998 56.6491 258.434 54.8324C258.583 54.2059 258.387 53.2856 257.995 52.771C253.525 46.9013 249.017 41.0624 244.418 35.2921C243.864 34.597 242.72 34.3704 241.849 33.9327C241.357 33.6838 240.861 33.4446 240.366 33.2041C240.788 32.86 241.167 32.2922 241.634 32.2083C243.915 31.8055 246.211 31.4979 248.512 31.2517C248.867 31.2126 249.277 31.6699 249.66 31.8964C249.399 32.1762 249.175 32.6279 248.866 32.7034C247.005 33.1481 247.507 34.1956 248.281 35.1382C251.924 39.5856 255.629 43.9812 259.291 48.4131C260.13 49.4313 260.34 48.753 260.576 48.0118C261.305 45.728 262.047 43.4498 262.752 41.159C263.56 38.5367 264.345 35.906 265.113 33.274C265.745 31.1189 265.725 31.1398 263.545 30.5357C263.133 30.421 262.801 30.0224 262.432 29.7553C262.772 29.4546 263.075 28.9567 263.458 28.8854C265.48 28.5022 267.519 28.1861 269.562 27.9484C269.948 27.9036 270.39 28.3232 270.806 28.5288C270.506 28.891 270.264 29.4938 269.903 29.5805C267.684 30.0993 267.024 31.8825 266.472 33.7075C263.904 42.1407 261.408 50.5977 258.823 59.0266C257.616 62.9579 255.355 64.9187 252.274 64.9508Z" fill="white"/>
<path d="M198.76 416.575C195.547 416.196 192.322 415.873 189.13 415.374C188.606 415.291 187.767 414.342 187.839 413.926C188.013 412.924 188.229 411.622 189.72 411.596C190.66 411.58 191.603 411.659 192.54 411.746C198.654 412.348 204.768 412.927 210.873 413.612C211.616 413.697 212.443 414.208 212.966 414.773C213.459 415.303 213.593 416.157 213.886 416.87C213.108 417.1 212.309 417.586 211.554 417.526C207.72 417.223 203.897 416.772 200.07 416.391C199.646 416.347 199.214 416.382 198.785 416.382C198.777 416.444 198.768 416.512 198.76 416.575Z" fill="white"/>
<path d="M400.441 476.332C400.478 478.284 399.041 479.883 397.227 479.894C395.681 479.902 394.68 478.951 394.599 477.398C394.502 475.567 396.07 473.83 397.836 473.815C399.371 473.798 400.406 474.799 400.441 476.332Z" fill="white"/>
<path d="M414.72 517.666L413.001 514.62C485.19 473.922 530.033 396.744 530.033 313.201C530.033 186.156 427.906 82.7976 302.374 82.7976C176.843 82.7976 74.7171 186.156 74.7171 313.201C74.7171 349.608 82.8635 384.435 98.9297 416.715L95.8003 418.272C79.4908 385.504 71.2214 350.153 71.2214 313.201C71.2214 184.228 174.916 79.3013 302.374 79.3013C429.833 79.3013 533.529 184.228 533.529 313.201C533.529 398.004 488.004 476.35 414.72 517.666Z" fill="white"/>
<path d="M300.998 608.063C220.595 608.063 145.006 576.436 88.1545 519.007C31.3075 461.583 0 385.237 0 304.031C0 222.825 31.3075 146.479 88.1545 89.0546C145.006 31.6279 220.595 0 300.998 0C381.402 0 456.993 31.6265 513.845 89.0546C570.693 146.479 602 222.825 602 304.031C602 385.237 570.693 461.584 513.845 519.007C456.991 576.436 381.402 608.063 300.998 608.063ZM300.998 3.49775C136.955 3.49775 3.4957 138.317 3.4957 304.032C3.4957 469.749 136.955 604.568 300.998 604.568C380.461 604.568 455.169 573.308 511.361 516.548C567.555 459.783 598.503 384.31 598.503 304.031C598.503 223.752 567.555 148.278 511.361 91.5147C455.169 34.7564 380.462 3.49775 300.998 3.49775Z" fill="white"/>
</svg>
